<?xml version="1.0" standalone="no"?>
<!DOCTYPE svg PUBLIC "-//W3C//DTD SVG 20010904//EN"
 "http://www.w3.org/TR/2001/REC-SVG-20010904/DTD/svg10.dtd">
<svg version="1.0" xmlns="http://www.w3.org/2000/svg"
 width="700.000000pt" height="700.000000pt" viewBox="0 0 700.000000 700.000000"
 preserveAspectRatio="xMidYMid meet">
<metadata>
Created by potrace 1.14, written by Peter Selinger 2001-2017
</metadata>
<g transform="translate(0.000000,700.000000) scale(0.100000,-0.100000)"
fill="#000000" stroke="none">
<path d="M2189 6979 c-1 -89 -29 -210 -66 -288 -27 -56 -92 -142 -146 -192
-56 -52 -188 -134 -327 -205 -313 -159 -505 -332 -584 -529 -34 -85 -37 -103
-41 -220 -3 -120 19 -227 69 -326 l34 -67 -57 -51 c-142 -130 -193 -255 -195
-480 l-2 -138 -37 -39 c-56 -60 -100 -161 -123 -283 -3 -13 -15 -54 -28 -90
-98 -279 -263 -454 -507 -535 -42 -14 -98 -28 -125 -31 -27 -4 -50 -8 -52 -9
-11 -11 200 -172 263 -202 16 -7 37 -18 45 -23 32 -21 148 -60 225 -76 89 -19
299 -23 378 -7 26 5 47 7 47 3 0 -7 -114 -126 -156 -161 -55 -48 -136 -101
-218 -145 -87 -47 -271 -117 -280 -107 -3 3 -6 1 -6 -5 0 -13 182 -120 300
-176 123 -58 218 -88 390 -122 8 -2 37 -4 63 -4 56 -1 56 1 4 -116 -78 -176
-194 -301 -288 -308 -33 -2 -9 -15 43 -22 29 -4 62 -9 73 -11 11 -2 62 -9 112
-16 l93 -12 46 -82 c25 -46 54 -91 63 -101 9 -10 47 -59 84 -110 38 -51 84
-106 102 -122 79 -69 180 -108 291 -112 50 -2 57 -5 65 -28 5 -14 14 -35 19
-46 5 -11 18 -42 29 -70 49 -128 171 -333 288 -482 73 -94 208 -234 303 -315
100 -85 380 -291 458 -338 301 -178 682 -225 1037 -126 6 2 23 8 38 14 16 7
32 12 37 12 16 0 161 69 224 107 73 44 402 290 466 347 88 81 188 182 241 246
54 64 179 236 179 245 0 2 15 28 33 57 41 65 111 209 147 303 l27 70 54 2
c133 7 248 60 330 153 132 151 255 349 290 467 l12 42 48 -25 c62 -31 139 -59
207 -74 76 -17 332 -18 332 -1 0 5 -16 29 -36 53 -20 23 -43 52 -52 63 -84
101 -193 297 -257 460 l-31 80 110 33 c117 35 271 105 370 168 57 36 59 38 35
48 -75 31 -192 93 -245 131 -96 69 -254 231 -254 261 0 5 53 10 118 11 149 2
275 33 412 102 54 27 105 54 112 60 7 6 40 32 73 59 33 27 69 59 79 71 l19 21
-34 -7 c-54 -12 -150 -7 -202 11 -249 85 -455 426 -589 976 -16 69 -32 139
-35 155 -25 166 -124 351 -272 508 -62 66 -64 69 -36 64 17 -3 50 -9 75 -13
115 -17 230 -41 303 -64 34 -11 62 -18 64 -16 5 4 -66 148 -100 201 -32 52
-105 144 -142 180 -18 17 -111 93 -124 102 -1 1 23 32 56 70 104 121 311 428
298 442 -3 2 -22 -7 -42 -21 -120 -77 -308 -118 -452 -96 -80 12 -186 51 -341
128 -277 136 -353 158 -516 154 -61 -2 -124 -5 -139 -8 -20 -4 -52 6 -109 33
-104 50 -237 97 -316 111 -58 11 -187 14 -255 6 -16 -2 -66 -7 -110 -10 -44
-4 -97 -9 -118 -11 -44 -5 -45 -9 34 95 57 74 81 103 143 170 50 54 51 60 14
49 -105 -29 -244 -37 -628 -36 -217 0 -418 -2 -447 -6 -148 -18 -297 -81 -415
-175 l-77 -61 -42 77 c-54 99 -122 199 -193 286 -47 57 -56 65 -57 45z"/>
</g>
</svg>
